<svg width="33" height="32" viewBox="0 0 33 32" fill="none" xmlns="http://www.w3.org/2000/svg">
<circle cx="16.333" cy="16" r="15.3333" stroke="black" stroke-width="1.33333"/>
<g clip-path="url(#clip0)">
<path d="M21.5607 12.7425C21.5695 12.8846 21.5695 13.0267 21.5695 13.1689C21.5695 17.5039 18.6825 22.4988 13.4058 22.4988C11.7802 22.4988 10.2701 21.9607 8.99976 21.0267C9.23073 21.0572 9.45279 21.0673 9.69265 21.0673C11.034 21.0673 12.2688 20.5496 13.2548 19.6663C11.9934 19.6359 10.9363 18.6917 10.5721 17.3922C10.7498 17.4227 10.9274 17.443 11.114 17.443C11.3716 17.443 11.6292 17.4023 11.869 17.3313C10.5543 17.0267 9.56826 15.7069 9.56826 14.113V14.0724C9.95022 14.3161 10.3944 14.4684 10.8652 14.4887C10.0924 13.8998 9.58603 12.8948 9.58603 11.7577C9.58603 11.1486 9.72814 10.5902 9.97688 10.1029C11.3893 12.0927 13.5124 13.3922 15.8931 13.5343C15.8487 13.2907 15.822 13.0369 15.822 12.7831C15.822 10.976 17.1012 9.50391 18.6913 9.50391C19.5175 9.50391 20.2637 9.89984 20.7878 10.5394C21.4362 10.3973 22.0581 10.1232 22.6089 9.74756C22.3956 10.509 21.9426 11.1486 21.3474 11.5547C21.9248 11.4836 22.4845 11.3008 22.9997 11.0471C22.6089 11.6968 22.1203 12.2754 21.5607 12.7425Z" fill="black"/>
</g>
<defs>
<clipPath id="clip0">
<rect width="14" height="16" fill="white" transform="translate(8.99976 8)"/>
</clipPath>
</defs>
</svg>
