<svg width="33" height="32" viewBox="0 0 33 32" fill="none" xmlns="http://www.w3.org/2000/svg">
<circle cx="16.667" cy="16" r="15.3333" stroke="black" stroke-width="1.33333"/>
<path d="M12.419 24H8.94381V13.3176H12.419V24ZM10.6795 11.8604C9.56828 11.8604 8.66693 10.9819 8.66693 9.92111C8.66693 9.4116 8.87897 8.92296 9.25641 8.56268C9.63384 8.2024 10.1458 8 10.6795 8C11.2133 8 11.7252 8.2024 12.1026 8.56268C12.4801 8.92296 12.6921 9.4116 12.6921 9.92111C12.6921 10.9819 11.7904 11.8604 10.6795 11.8604ZM25.4255 24H21.9578V18.7999C21.9578 17.5606 21.9316 15.9712 20.151 15.9712C18.3442 15.9712 18.0673 17.3177 18.0673 18.7106V24H14.5958V13.3176H17.9288V14.7748H17.9775C18.4414 13.9355 19.5748 13.0498 21.2656 13.0498C24.7827 13.0498 25.4292 15.2605 25.4292 18.132V24H25.4255Z" fill="black"/>
</svg>
